<svg width="250" height="250" viewBox="0 0 250 250" fill="none" xmlns="http://www.w3.org/2000/svg">
<path d="M126.986 5.36394C125.814 6.53551 123.915 6.53551 122.743 5.36393C121.572 4.19236 121.572 2.29287 122.743 1.12129C123.915 -0.0502785 125.814 -0.0502784 126.986 1.12129C128.158 2.29287 128.158 4.19236 126.986 5.36394Z" fill="#BDC2D2"/>
<path d="M187.797 66.1751C186.626 67.3467 184.726 67.3467 183.554 66.1751C182.383 65.0036 182.383 63.1041 183.554 61.9325C184.726 60.7609 186.626 60.7609 187.797 61.9325C188.969 63.1041 188.969 65.0036 187.797 66.1751Z" fill="#BDC2D2"/>
<path d="M248.609 126.986C247.437 128.158 245.538 128.158 244.366 126.986C243.194 125.815 243.194 123.915 244.366 122.744C245.538 121.572 247.437 121.572 248.609 122.744C249.78 123.915 249.78 125.815 248.609 126.986Z" fill="#BDC2D2"/>
<path d="M66.175 66.1751C65.0035 67.3467 63.104 67.3467 61.9324 66.1751C60.7608 65.0035 60.7608 63.104 61.9324 61.9324C63.104 60.7609 65.0035 60.7609 66.175 61.9324C67.3466 63.104 67.3466 65.0035 66.175 66.1751Z" fill="#BDC2D2"/>
<path d="M126.986 126.986C125.814 128.158 123.915 128.158 122.743 126.986C121.572 125.815 121.572 123.915 122.743 122.744C123.915 121.572 125.814 121.572 126.986 122.744C128.158 123.915 128.158 125.815 126.986 126.986Z" fill="#BDC2D2"/>
<path d="M187.798 187.797C186.626 188.969 184.727 188.969 183.555 187.797C182.383 186.626 182.383 184.726 183.555 183.555C184.727 182.383 186.626 182.383 187.798 183.555C188.969 184.726 188.969 186.626 187.798 187.797Z" fill="#BDC2D2"/>
<path d="M5.36448 126.986C4.19291 128.158 2.29342 128.158 1.12184 126.986C-0.0497292 125.815 -0.0497291 123.915 1.12184 122.744C2.29342 121.572 4.19291 121.572 5.36448 122.744C6.53606 123.915 6.53606 125.815 5.36448 126.986Z" fill="#BDC2D2"/>
<path d="M66.175 187.797C65.0035 188.969 63.104 188.969 61.9324 187.797C60.7608 186.626 60.7608 184.726 61.9324 183.555C63.104 182.383 65.0035 182.383 66.175 183.555C67.3466 184.726 67.3466 186.626 66.175 187.797Z" fill="#BDC2D2"/>
<path d="M126.987 248.609C125.815 249.78 123.915 249.78 122.744 248.609C121.572 247.437 121.572 245.538 122.744 244.366C123.915 243.194 125.815 243.194 126.987 244.366C128.158 245.538 128.158 247.437 126.987 248.609Z" fill="#BDC2D2"/>
</svg>
