<svg width="212" height="212" viewBox="0 0 212 212" fill="none" xmlns="http://www.w3.org/2000/svg">
<path d="M207.828 7.12555C205.86 7.12555 204.265 5.53044 204.265 3.56278C204.265 1.59512 205.86 1.44252e-05 207.828 1.65991e-05C209.795 1.87731e-05 211.391 1.59512 211.391 3.56279C211.391 5.53045 209.795 7.12555 207.828 7.12555Z" fill="#79AFF0"/>
<path d="M207.828 109.258C205.86 109.258 204.265 107.663 204.265 105.695C204.265 103.728 205.86 102.133 207.828 102.133C209.795 102.133 211.391 103.728 211.391 105.695C211.391 107.663 209.795 109.258 207.828 109.258Z" fill="#79AFF0"/>
<path d="M207.828 211.391C205.861 211.391 204.265 209.796 204.265 207.828C204.265 205.861 205.861 204.266 207.828 204.266C209.796 204.266 211.391 205.861 211.391 207.828C211.391 209.796 209.796 211.391 207.828 211.391Z" fill="#79AFF0"/>
<path d="M105.695 7.12553C103.728 7.12553 102.133 5.53043 102.133 3.56276C102.133 1.5951 103.728 -2.17398e-06 105.695 0C107.663 2.17399e-06 109.258 1.59511 109.258 3.56277C109.258 5.53043 107.663 7.12554 105.695 7.12553Z" fill="#79AFF0"/>
<path d="M105.695 109.258C103.728 109.258 102.133 107.663 102.133 105.695C102.133 103.728 103.728 102.133 105.695 102.133C107.663 102.133 109.258 103.728 109.258 105.695C109.258 107.663 107.663 109.258 105.695 109.258Z" fill="#79AFF0"/>
<path d="M105.696 211.391C103.728 211.391 102.133 209.796 102.133 207.828C102.133 205.861 103.728 204.266 105.696 204.266C107.663 204.266 109.258 205.861 109.258 207.828C109.258 209.796 107.663 211.391 105.696 211.391Z" fill="#79AFF0"/>
<path d="M3.5632 7.12593C1.59554 7.12593 0.000434352 5.53082 0.000432378 3.56316C0.000430404 1.5955 1.59554 0.00038871 3.5632 0.000390884C5.53086 0.000393058 7.12597 1.5955 7.12597 3.56316C7.12597 5.53083 5.53087 7.12593 3.5632 7.12593Z" fill="#79AFF0"/>
<path d="M3.56277 109.258C1.59511 109.258 1.97378e-06 107.663 0 105.695C-1.97377e-06 103.728 1.59511 102.133 3.56277 102.133C5.53043 102.133 7.12554 103.728 7.12554 105.695C7.12554 107.663 5.53043 109.258 3.56277 109.258Z" fill="#79AFF0"/>
<path d="M3.56316 211.391C1.5955 211.391 0.000391519 209.796 0.000389546 207.828C0.000387572 205.861 1.5955 204.266 3.56316 204.266C5.53082 204.266 7.12592 205.861 7.12593 207.828C7.12593 209.796 5.53082 211.391 3.56316 211.391Z" fill="#79AFF0"/>
</svg>
